{"accessors" : [{"bufferView" : 0, "byteOffset" : 0, "componentType" : 5123, "count" : 1428, "type" : "SCALAR", "max" : [771], "min" : [0]}, {"bufferView" : 1, "byteOffset" : 0, "componentType" : 5126, "count" : 772, "type" : "VEC3", "max" : [5.275119304656982, 18.035503387451172, 0.9999998807907104], "min" : [0.275119423866272, 13.035514831542969, -5.960464477539063E-08]}, {"bufferView" : 1, "byteOffset" : 12, "componentType" : 5126, "count" : 772, "type" : "VEC3", "max" : [0.9996623396873474, 0.999662458896637, 1.0000044107437134], "min" : [-0.999660849571228, -0.9996594786643982, -1.0000044107437134]}], "asset" : {"generator" : "Aspose.3D 21.1", "version" : "2.0"}, "buffers" : [{"uri" : "buffer.bin", "byteLength" : 37136}], "bufferViews" : [{"buffer" : 0, "byteOffset" : 0, "byteLength" : 2856, "target" : 34963}, {"buffer" : 0, "byteOffset" : 2860, "byteLength" : 34272, "byteStride" : 24, "target" : 34962}], "meshes" : [{"primitives" : [{"attributes" : {"POSITION" : 1, "NORMAL" : 2}, "indices" : 0, "mode" : 4}]}], "nodes" : [{"mesh" : 0, "name" : ""}], "scene" : 0, "scenes" : [{"nodes" : [0]}]}