{"accessors" : [{"bufferView" : 0, "byteOffset" : 0, "componentType" : 5125, "count" : 131586, "type" : "SCALAR", "max" : [129823], "min" : [0]}, {"bufferView" : 1, "byteOffset" : 0, "componentType" : 5126, "count" : 129824, "type" : "VEC3", "max" : [6.934702396392822, 6.934681415557861, 18.221073150634766], "min" : [-6.934698104858398, -10.228961944580078, 0]}, {"bufferView" : 1, "byteOffset" : 12, "componentType" : 5126, "count" : 129824, "type" : "VEC3", "max" : [1.0000044107437134, 1.0000044107437134, 1.0000044107437134], "min" : [-1.0000044107437134, -1.0000044107437134, -1.0000044107437134]}], "asset" : {"generator" : "Aspose.3D 20.12.2", "version" : "2.0"}, "buffers" : [{"uri" : "buffer.bin", "byteLength" : 3684416}], "bufferViews" : [{"buffer" : 0, "byteOffset" : 0, "byteLength" : 526344, "target" : 34963}, {"buffer" : 0, "byteOffset" : 526348, "byteLength" : 3158064, "byteStride" : 24, "target" : 34962}], "meshes" : [{"primitives" : [{"attributes" : {"POSITION" : 1, "NORMAL" : 2}, "indices" : 0, "mode" : 4}]}], "nodes" : [{"mesh" : 0, "name" : ""}], "scene" : 0, "scenes" : [{"nodes" : [0]}]}